<svg width="116" height="29" viewBox="0 0 116 29" fill="none" xmlns="http://www.w3.org/2000/svg">
<rect x="0.38855" y="13.2129" width="32.356" height="1.54346" rx="0.771729" fill="#E3B873"/>
<rect x="83.3009" y="13.2129" width="32.356" height="1.54346" rx="0.771729" fill="#E3B873"/>
<path d="M66.0025 22.0527C65.2475 22.7527 65.2475 23.9194 66.0025 24.6661C66.38 25.0394 66.8519 25.2261 67.3237 25.2261C67.7955 25.2261 68.2674 25.0394 68.6449 24.6661C69.3999 23.9661 69.3999 22.7994 68.6449 22.0527C67.9372 21.306 66.7575 21.306 66.0025 22.0527ZM67.9843 24.0594C67.6068 24.4327 67.0406 24.4327 66.6631 24.0594C66.2857 23.686 66.2856 23.126 66.6631 22.7527C66.8519 22.566 67.0878 22.4727 67.3238 22.4727C67.5597 22.4727 67.7956 22.566 67.9844 22.7527C68.3618 23.126 68.3618 23.6861 67.9843 24.0594Z" fill="#E3B873"/>
<path d="M71.8541 22.6128L63.3607 14.2129L66.7109 10.8995L66.711 10.8995L68.6927 8.93952L68.6928 8.93947L71.571 6.09288C72.3732 5.29953 72.3732 3.99288 71.571 3.19953L69.1646 0.819538C68.7871 0.446242 68.268 0.212891 67.7018 0.212891C67.1356 0.212891 66.6165 0.446242 66.2391 0.819538L63.3607 3.66618L61.3789 5.62618L58.0287 8.93952L49.6296 0.63289C49.1105 0.119539 48.1668 0.119539 47.6478 0.63289L44.2976 3.94623C43.7314 4.45959 43.7314 5.34623 44.2976 5.90623L45.2885 6.88623L47.9781 9.54622L50.6205 12.1595C50.6205 12.1595 50.6205 12.1595 50.6205 12.1596L52.6967 14.2129L45.1219 21.7043C44.9807 21.7659 44.9045 21.8918 44.8638 22.0528L43.8729 27.6528C43.8729 27.8395 43.9201 27.9795 44.0145 28.0728C44.1088 28.1662 44.2032 28.2128 44.3448 28.2128C44.3919 28.2128 44.3919 28.2128 44.4392 28.2128L49.8828 27.2175C49.9204 27.2274 49.9611 27.2328 50.0071 27.2328C50.1486 27.2328 50.2902 27.1862 50.3374 27.0928L58.0287 19.4862L58.6421 20.0929C58.6421 20.0929 58.6421 20.0929 58.6421 20.0929L58.6422 20.093L59.9633 21.3996C59.9633 21.3996 59.9633 21.3996 59.9633 21.3996L59.9634 21.3997L66.5222 27.8862C66.7581 28.1196 67.0412 28.2129 67.3244 28.2129C67.6075 28.2129 67.8906 28.1195 68.0793 27.8862L71.8542 24.1529C72.2788 23.7328 72.2788 23.0328 71.8541 22.6128ZM50.0071 26.0662L48.356 24.4333L64.0444 8.96238L65.6728 10.5729L50.0071 26.0662ZM66.8996 1.47289C67.3243 1.05289 68.0793 1.05289 68.5039 1.47289L70.9104 3.85288C71.3351 4.27288 71.3351 5.01953 70.9104 5.43953L68.3624 7.95952L64.3516 3.99288L66.8996 1.47289ZM63.691 4.64623L65.6964 6.62958L67.7018 8.61287L66.3806 9.91952L62.3698 5.95288L63.691 4.64623ZM52.9562 13.1629L53.9707 12.1595C54.1594 11.9729 54.1594 11.6929 53.9707 11.5062C53.782 11.3195 53.4989 11.3195 53.3101 11.5062L52.2956 12.5095L51.6114 11.8329L53.2629 10.1995C53.4516 10.0129 53.4516 9.73287 53.2629 9.54617C53.0742 9.35947 52.7911 9.35952 52.6023 9.54617L50.9508 11.1795L50.2901 10.5262L51.281 9.54617C51.4698 9.35952 51.4698 9.07952 51.281 8.89282C51.0923 8.70612 50.8092 8.70617 50.6204 8.89282L49.6295 9.87282L48.9689 9.21947L50.6204 7.58612C50.8091 7.39947 50.8091 7.11947 50.6204 6.93277C50.4317 6.74607 50.1486 6.74612 49.9598 6.93277L48.3084 8.56623L47.6006 7.86623L48.5915 6.88623C48.7802 6.69958 48.7802 6.41958 48.5915 6.23288C48.4028 6.04618 48.1197 6.04623 47.9309 6.23288L46.94 7.21288L46.2794 6.55953L47.9309 4.92618C48.1196 4.73953 48.1196 4.45953 47.9309 4.27283C47.7422 4.08613 47.459 4.08618 47.2703 4.27283L45.6188 5.90623L44.9582 5.25288C44.7694 5.06623 44.7694 4.78623 44.9582 4.59953L48.3084 1.28624C48.4028 1.19289 48.4971 1.14624 48.6387 1.14624C48.7331 1.14624 48.8746 1.19289 48.969 1.28624L57.3681 9.59287L53.3573 13.5595L52.9562 13.1629ZM61.7092 6.65288L63.3602 8.28573L47.6719 23.7567L46.0435 22.1462L61.7092 6.65288ZM45.666 23.0795L47.214 24.6105C47.2376 24.6638 47.2719 24.7144 47.3175 24.7595L49.0231 26.4463L44.9582 27.1394L45.666 23.0795ZM71.1936 23.4995L67.4187 27.2328C67.3715 27.2795 67.23 27.2795 67.1827 27.2328L62.299 22.4028L63.9741 20.7462C64.1628 20.5596 64.1628 20.2796 63.9741 20.0929C63.7854 19.9062 63.5022 19.9062 63.3135 20.0929L61.6384 21.7495L60.9542 21.0729L61.9451 20.0929C62.1338 19.9062 62.1338 19.6262 61.9451 19.4395C61.7564 19.2529 61.4733 19.2529 61.2845 19.4395L60.2936 20.4195L59.633 19.7661L61.2845 18.1328C61.4732 17.9462 61.4732 17.6662 61.2845 17.4795C61.0958 17.2928 60.8126 17.2928 60.6239 17.4795L58.9724 19.1129L58.6893 18.8329L62.7001 14.8662L71.1935 23.2662C71.2408 23.3128 71.2408 23.4528 71.1936 23.4995Z" fill="#E3B873"/>
</svg>
