<svg width="113" height="113" viewBox="0 0 113 113" fill="none" xmlns="http://www.w3.org/2000/svg">
<g clip-path="url(#clip0)">
<g filter="url(#filter0_d)">
<path d="M56 92C75.8823 92 92 75.8823 92 56C92 36.1177 75.8823 20 56 20C36.1177 20 20 36.1177 20 56C20 75.8823 36.1177 92 56 92Z" fill="#E3B873"/>
</g>
<path d="M56.3396 63.2782C55.9614 63.2782 55.6526 63.5775 55.6526 63.9493V65.2739C55.6526 65.6457 55.9614 65.9449 56.3396 65.9449C56.7178 65.9449 57.0265 65.6457 57.0265 65.2739V63.9493C57.0265 63.5775 56.7178 63.2782 56.3396 63.2782Z" fill="white" stroke="white" stroke-width="0.1"/>
<path d="M73.0581 54.0004V54.0003C72.6069 51.8425 71.5951 49.8084 70.1321 48.1178C68.7237 46.4902 66.9214 45.2089 64.9118 44.4013C64.5828 43.0653 63.8927 41.6876 62.5386 40.6502C61.2205 39.6405 59.8931 39.4458 59.8338 39.4375C59.6374 39.4102 59.4377 39.4672 59.2872 39.5945C59.1366 39.7218 59.0498 39.9068 59.0498 40.1018V43.4054H56.8254C56.236 41.4913 54.4142 40.0933 52.2634 40.0933C50.0652 40.0933 48.2096 41.5532 47.6632 43.5323C44.5152 43.9581 41.6197 45.4488 39.4692 47.7623L39.5017 47.7924L39.4692 47.7623C37.2 50.2038 35.95 53.3646 35.95 56.6624C35.95 64.052 39.8839 70.0623 41.0891 71.7278C41.4705 72.2549 42.0945 72.5691 42.7582 72.5691H45.4692C46.5961 72.5691 47.515 71.675 47.515 70.5732V69.7716C48.1849 69.8693 48.8649 69.9194 49.5457 69.9194H55.6528V70.5732C55.6528 71.675 56.5717 72.5691 57.6986 72.5691H60.6765C61.634 72.5691 62.4756 71.9067 62.6767 70.9917L62.9969 69.5352C67.173 68.5336 70.5324 65.6771 72.1959 61.9705H74.6837C75.4359 61.9705 76.05 61.3736 76.05 60.6371V55.3376C76.05 54.981 75.9075 54.6458 75.6493 54.3941C75.3912 54.1425 75.0482 54.0041 74.6838 54.0041H74.6837H74.6836H74.6835L73.0592 54.0043C73.0587 54.003 73.0584 54.0017 73.0581 54.0004ZM74.6762 60.5869H74.6761V60.6284H72.7111C73.0469 59.5848 73.2538 58.4889 73.3138 57.3596C73.3337 56.9883 73.0411 56.6738 72.6633 56.6547C72.2857 56.636 71.9615 56.9187 71.9418 57.29C71.6746 62.3126 68.1861 66.6062 63.3218 68.0564L64.1936 64.0901C64.2736 63.7265 64.0358 63.3704 63.6656 63.2931C63.2961 63.2156 62.9301 63.4452 62.8503 63.8084L61.3334 70.7099C61.2678 71.0085 60.9919 71.227 60.6765 71.227H57.6984C57.3268 71.227 57.0266 70.9324 57.0266 70.5732V67.9234C57.0266 67.5516 56.7178 67.2524 56.3396 67.2524C55.9614 67.2524 55.6527 67.5516 55.6527 67.9234V68.5773H49.5455C48.8637 68.5773 48.1831 68.5213 47.5148 68.4125V63.949C47.5148 63.5772 47.2061 63.278 46.8279 63.278C46.4497 63.278 46.1409 63.5772 46.1409 63.949V70.5732C46.1409 70.9325 45.8407 71.2271 45.4691 71.2271H42.7582C42.5355 71.2271 42.3366 71.127 42.2111 70.9533C41.0641 69.368 37.3239 63.6542 37.3239 56.6623C37.3239 53.6989 38.4469 50.8586 40.4864 48.6644C42.3401 46.67 44.8092 45.3558 47.5037 44.9137C47.5187 45.3017 47.5834 45.6852 47.695 46.055H47.5074C47.1292 46.055 46.8205 46.3542 46.8205 46.726C46.8205 47.0978 47.1292 47.3971 47.5074 47.3971H57.0191C57.3974 47.3971 57.7061 47.0978 57.7061 46.726C57.7061 46.3542 57.3974 46.055 57.0191 46.055H56.8315C56.9592 45.6325 57.0258 45.192 57.0266 44.7473H59.0498V46.0636C59.0498 46.4354 59.3585 46.7346 59.7367 46.7346C60.1149 46.7346 60.4237 46.4354 60.4237 46.0636V40.9895C61.0183 41.2187 61.843 41.6672 62.5288 42.5227C63.2404 43.4102 63.8056 44.7396 63.8056 46.7261C63.8056 47.0979 64.1144 47.3971 64.4926 47.3971C64.8708 47.3971 65.1795 47.0979 65.1795 46.7261C65.1795 46.4882 65.1716 46.2384 65.1536 45.9805C66.6527 46.7054 67.9978 47.7304 69.0829 48.9843C70.3977 50.5038 71.3068 52.3312 71.712 54.269C71.8426 54.8939 72.4049 55.3465 73.0487 55.3464L74.6762 55.3463V60.5869ZM52.2633 41.4354C54.1334 41.4354 55.6527 42.9186 55.6527 44.7389C55.6527 45.1937 55.5552 45.642 55.371 46.0551H49.1555C48.9714 45.6419 48.8737 45.1937 48.8737 44.7389C48.8737 42.9185 50.3931 41.4354 52.2633 41.4354Z" fill="white" stroke="white" stroke-width="0.1"/>
<path d="M63.9116 54.4404C64.315 53.3857 65.3808 52.6794 66.5621 52.6794C67.7433 52.6794 68.8093 53.3857 69.2125 54.4404H63.9116ZM63.9116 54.4404C63.7784 54.7888 63.9605 55.1751 64.3155 55.3041L63.9116 54.4404ZM63.9116 54.4404L64.3155 55.3041L63.9116 54.4404ZM64.3155 55.3041C64.67 55.4331 65.0657 55.2577 65.1986 54.91L64.3155 55.3041ZM65.1986 54.91C65.4011 54.3805 65.9479 54.0214 66.562 54.0214C67.1761 54.0214 67.723 54.3805 67.9255 54.91C68.0289 55.1805 68.2913 55.3464 68.5691 55.3464C68.6488 55.3464 68.7297 55.3328 68.8086 55.3041L68.7915 55.2571L65.1986 54.91Z" fill="white" stroke="white" stroke-width="0.1"/>
<path d="M55.2116 57.0757C54.5601 56.6339 53.7201 56.3632 52.9502 56.1509V53.0719C53.5451 53.1491 54.0484 53.3214 54.4047 53.5341C54.7758 53.7558 54.9733 54.0121 54.9733 54.2406C54.9733 54.6124 55.2821 54.9116 55.6603 54.9116C56.0385 54.9116 56.3472 54.6124 56.3472 54.2406C56.3472 53.585 55.9732 52.9989 55.3589 52.5557C54.754 52.1193 53.9127 51.8182 52.9502 51.7204V51.6944C52.9502 51.3226 52.6414 51.0233 52.2632 51.0233C51.885 51.0233 51.5763 51.3226 51.5763 51.6944V51.7204C50.6138 51.8182 49.7724 52.1193 49.1676 52.5557C48.5533 52.9989 48.1792 53.585 48.1792 54.2406C48.1792 55.1681 48.6508 55.799 49.3149 56.2494C49.9663 56.6912 50.8063 56.9619 51.5763 57.1742V60.2531C50.9814 60.176 50.4781 60.0037 50.1218 59.7909C49.7506 59.5693 49.5532 59.313 49.5532 59.0845C49.5532 58.7127 49.2444 58.4135 48.8662 58.4135C48.488 58.4135 48.1792 58.7127 48.1792 59.0845C48.1792 59.7401 48.5533 60.3262 49.1676 60.7694C49.7724 61.2058 50.6138 61.5068 51.5763 61.6047V61.6307C51.5763 62.0025 51.885 62.3017 52.2632 62.3017C52.6414 62.3017 52.9502 62.0025 52.9502 61.6307V61.6047C53.9127 61.5068 54.754 61.2058 55.3589 60.7694C55.9732 60.3262 56.3472 59.7401 56.3472 59.0845C56.3472 58.1569 55.8757 57.526 55.2116 57.0757ZM51.5763 53.0719V55.7681C50.8286 55.5358 50.3248 55.3146 50.0067 55.0732C49.6827 54.8275 49.5532 54.5627 49.5532 54.2406C49.5532 54.0121 49.7506 53.7558 50.1218 53.5341C50.4781 53.3214 50.9814 53.1491 51.5763 53.0719ZM54.4047 59.791C54.0484 60.0038 53.545 60.1761 52.9502 60.2532V57.557C53.6979 57.7893 54.2016 58.0105 54.5198 58.2519C54.8437 58.4976 54.9733 58.7625 54.9733 59.0846C54.9733 59.313 54.7758 59.5693 54.4047 59.791Z" fill="white" stroke="white" stroke-width="0.1"/>
</g>
<defs>
<filter id="filter0_d" x="0" y="10" width="112" height="112" filterUnits="userSpaceOnUse" color-interpolation-filters="sRGB">
<feFlood flood-opacity="0" result="BackgroundImageFix"/>
<feColorMatrix in="SourceAlpha" type="matrix" values="0 0 0 0 0 0 0 0 0 0 0 0 0 0 0 0 0 0 127 0"/>
<feOffset dy="10"/>
<feGaussianBlur stdDeviation="10"/>
<feColorMatrix type="matrix" values="0 0 0 0 0.929412 0 0 0 0 0.752941 0 0 0 0 0.470588 0 0 0 0.2 0"/>
<feBlend mode="normal" in2="BackgroundImageFix" result="effect1_dropShadow"/>
<feBlend mode="normal" in="SourceGraphic" in2="effect1_dropShadow" result="shape"/>
</filter>
<clipPath id="clip0">
<rect width="113" height="113" fill="white"/>
</clipPath>
</defs>
</svg>
