<svg width="34" height="33" viewBox="0 0 34 33" fill="none" xmlns="http://www.w3.org/2000/svg">
<path fill-rule="evenodd" clip-rule="evenodd" d="M3.39487 1.25492C3.39487 1.04402 3.57508 0.873047 3.79739 0.873047H32.7794C33.0017 0.873047 33.1819 1.04402 33.1819 1.25492V28.8769C33.1819 29.0878 33.0017 29.2588 32.7794 29.2588C32.5571 29.2588 32.3769 29.0878 32.3769 28.8769V1.63679H3.79739C3.57508 1.63679 3.39487 1.46582 3.39487 1.25492Z" fill="white" stroke="white" stroke-width="0.5"/>
<path d="M2.89358 5.54855L2.89358 29.3098L2.89358 29.4348L3.01858 29.4348L3.8173 29.4348L3.9423 29.4348L3.9423 29.3098L3.94229 5.54855L5.58915 7.17727C5.79381 7.37968 6.12506 7.37968 6.32972 7.17727C6.53515 6.9741 6.53515 6.64413 6.32972 6.44096L3.78822 3.92744C3.58356 3.72503 3.25231 3.72503 3.04765 3.92744L0.506152 6.44096C0.300723 6.64413 0.300724 6.9741 0.506151 7.17727C0.710812 7.37968 1.04206 7.37968 1.24672 7.17727L2.89358 5.54855Z" fill="white" stroke="white" stroke-width="0.25"/>
<path d="M25.5156 27.1647L27.1674 28.7896L3.01761 28.7896H2.89261V28.9146V29.7045V29.8295H3.01761L27.1674 29.8295L25.5156 31.4545C25.3091 31.6577 25.3091 31.988 25.5156 32.1912C25.721 32.3933 26.0532 32.3933 26.2587 32.1912L28.8134 29.6779C29.0199 29.4747 29.0199 29.1444 28.8134 28.9412L26.2587 26.4279C26.0532 26.2258 25.721 26.2258 25.5156 26.4279C25.3091 26.6311 25.3091 26.9614 25.5156 27.1647Z" fill="white" stroke="white" stroke-width="0.25"/>
<path fill-rule="evenodd" clip-rule="evenodd" d="M14.4285 0.988725C14.5845 1.14296 14.5845 1.39303 14.4285 1.54727L9.63624 6.28667C9.48029 6.4409 9.22743 6.4409 9.07147 6.28667C8.91551 6.13243 8.91551 5.88236 9.07147 5.72812L13.8638 0.988725C14.0197 0.834488 14.2726 0.834488 14.4285 0.988725Z" fill="white" stroke="white" stroke-width="0.5" stroke-linecap="round" stroke-linejoin="round"/>
<path fill-rule="evenodd" clip-rule="evenodd" d="M32.9318 19.8149C33.0878 19.9691 33.0878 20.2191 32.9318 20.3734L28.5389 24.7173C28.383 24.8716 28.1301 24.8716 27.9742 24.7173C27.8182 24.5631 27.8182 24.3131 27.9742 24.1589L32.3671 19.8149C32.523 19.6607 32.7759 19.6607 32.9318 19.8149Z" fill="white" stroke="white" stroke-width="0.5" stroke-linecap="round" stroke-linejoin="round"/>
<path fill-rule="evenodd" clip-rule="evenodd" d="M20.417 0.986954C20.5739 1.14021 20.5755 1.39028 20.4206 1.5455L10.0374 11.946C9.88242 12.1012 9.62957 12.1028 9.47262 11.9496C9.31568 11.7963 9.31407 11.5462 9.46903 11.391L19.8522 0.990511C20.0072 0.835292 20.26 0.833699 20.417 0.986954Z" fill="white" stroke="white" stroke-width="0.5" stroke-linecap="round" stroke-linejoin="round"/>
<path fill-rule="evenodd" clip-rule="evenodd" d="M33.0649 13.2319C33.2209 13.3861 33.2209 13.6362 33.0649 13.7904L22.948 23.7955C22.792 23.9497 22.5392 23.9497 22.3832 23.7955C22.2273 23.6412 22.2273 23.3912 22.3832 23.2369L32.5002 13.2319C32.6561 13.0777 32.909 13.0777 33.0649 13.2319Z" fill="white" stroke="white" stroke-width="0.5" stroke-linecap="round" stroke-linejoin="round"/>
<path fill-rule="evenodd" clip-rule="evenodd" d="M26.8107 1.12185C26.9654 1.27733 26.9633 1.5274 26.8061 1.68039L10.1664 17.8739C10.0092 18.0269 9.75636 18.0248 9.60167 17.8694C9.44697 17.7139 9.44901 17.4638 9.60622 17.3108L26.2459 1.11735C26.4031 0.964351 26.656 0.966368 26.8107 1.12185Z" fill="white" stroke="white" stroke-width="0.5" stroke-linecap="round" stroke-linejoin="round"/>
<path fill-rule="evenodd" clip-rule="evenodd" d="M33.065 7.04439C33.221 7.19863 33.221 7.4487 33.065 7.60294L16.2922 24.191C16.1362 24.3452 15.8834 24.3452 15.7274 24.191C15.5715 24.0367 15.5715 23.7867 15.7274 23.6324L32.5002 7.04439C32.6562 6.89015 32.9091 6.89015 33.065 7.04439Z" fill="white" stroke="white" stroke-width="0.5" stroke-linecap="round" stroke-linejoin="round"/>
<path fill-rule="evenodd" clip-rule="evenodd" d="M32.7987 1.11958C32.9547 1.27382 32.9547 1.52389 32.7987 1.67813L9.90253 24.3218C9.74657 24.4761 9.49372 24.4761 9.33776 24.3218C9.18181 24.1676 9.18181 23.9175 9.33776 23.7633L32.2339 1.11958C32.3899 0.965347 32.6428 0.965347 32.7987 1.11958Z" fill="white" stroke="white" stroke-width="0.5" stroke-linecap="round" stroke-linejoin="round"/>
</svg>
