<svg width="35" height="33" viewBox="0 0 35 33" fill="none" xmlns="http://www.w3.org/2000/svg">
<path d="M25.4809 3.07172C25.2153 1.81902 24.062 0.873047 22.6825 0.873047C22.3672 0.873047 22.1112 1.11875 22.1112 1.42271C22.1112 1.72668 22.3672 1.97238 22.6825 1.97238C23.6273 1.97238 24.3961 2.71223 24.3961 3.62138C24.3961 4.53053 23.6273 5.27039 22.6825 5.27039C22.3672 5.27039 22.1112 5.51609 22.1112 5.82006C22.1112 6.12402 22.3672 6.36972 22.6825 6.36972C24.0614 6.36972 25.2153 5.42375 25.4809 4.17105H32.9645V9.11806H2.11837V4.17105H10.1155H11.8292C12.1445 4.17105 12.4004 3.92535 12.4004 3.62138C12.4004 3.31742 12.1445 3.07172 11.8292 3.07172H10.7919C11.0283 2.433 11.6567 1.97238 12.4004 1.97238C13.3452 1.97238 14.1141 2.71223 14.1141 3.62138C14.1141 4.53053 13.3452 5.27039 12.4004 5.27039C12.0851 5.27039 11.8292 5.51609 11.8292 5.82006C11.8292 6.12402 12.0851 6.36972 12.4004 6.36972C13.9753 6.36972 15.2565 5.13682 15.2565 3.62138C15.2565 2.10595 13.9753 0.873047 12.4004 0.873047C11.0215 0.873047 9.86761 1.81902 9.60199 3.07172H0.975922V10.2174V32.2041H34.107V10.2174V3.07172H25.4809ZM32.9645 31.1048H2.11837V10.2174H32.9645V31.1048Z" fill="white"/>
<path d="M15.8277 1.97227C16.7725 1.97227 17.5414 2.71204 17.5414 3.62109C17.5414 4.53015 16.7725 5.26992 15.8277 5.26992C15.5124 5.26992 15.2565 5.5156 15.2565 5.81953C15.2565 6.12347 15.5124 6.36914 15.8277 6.36914C17.4026 6.36914 18.6839 5.13637 18.6839 3.62109C18.6839 2.10582 17.4026 0.873047 15.8277 0.873047C15.5124 0.873047 15.2565 1.11872 15.2565 1.42266C15.2565 1.72659 15.5124 1.97227 15.8277 1.97227Z" fill="white"/>
<path d="M19.2551 1.97227C20.1999 1.97227 20.9688 2.71204 20.9688 3.62109C20.9688 4.53015 20.1999 5.26992 19.2551 5.26992C18.9398 5.26992 18.6839 5.5156 18.6839 5.81953C18.6839 6.12347 18.9398 6.36914 19.2551 6.36914C20.83 6.36914 22.1112 5.13637 22.1112 3.62109C22.1112 2.10582 20.83 0.873047 19.2551 0.873047C18.9398 0.873047 18.6839 1.11872 18.6839 1.42266C18.6839 1.72659 18.9398 1.97227 19.2551 1.97227Z" fill="white"/>
<path d="M6.11692 14.6143H18.6839C18.9992 14.6143 19.2551 14.3685 19.2551 14.0645C19.2551 13.7604 18.9992 13.5146 18.6839 13.5146H6.11692C5.8016 13.5146 5.54569 13.7604 5.54569 14.0645C5.54569 14.3685 5.8016 14.6143 6.11692 14.6143Z" fill="white"/>
<path d="M28.966 22.3096H20.3976C20.0822 22.3096 19.8263 22.5553 19.8263 22.8594C19.8263 23.1634 20.0822 23.4092 20.3976 23.4092H28.966C29.2813 23.4092 29.5372 23.1634 29.5372 22.8594C29.5372 22.5553 29.2813 22.3096 28.966 22.3096Z" fill="white"/>
<path d="M6.11692 19.0117H11.8292C12.1445 19.0117 12.4004 18.7662 12.4004 18.4624C12.4004 18.1586 12.1445 17.9131 11.8292 17.9131H6.11692C5.8016 17.9131 5.54569 18.1586 5.54569 18.4624C5.54569 18.7662 5.8016 19.0117 6.11692 19.0117Z" fill="white"/>
<path d="M28.966 26.707H23.2537C22.9384 26.707 22.6825 26.9528 22.6825 27.2568C22.6825 27.5609 22.9384 27.8066 23.2537 27.8066H28.966C29.2813 27.8066 29.5372 27.5609 29.5372 27.2568C29.5372 26.9528 29.2813 26.707 28.966 26.707Z" fill="white"/>
<path d="M16.9702 18.4624C16.9702 18.7662 17.2261 19.0117 17.5414 19.0117H26.1098C26.4252 19.0117 26.6811 18.7662 26.6811 18.4624C26.6811 18.1586 26.4252 17.9131 26.1098 17.9131H17.5414C17.2261 17.9131 16.9702 18.1586 16.9702 18.4624Z" fill="white"/>
<path d="M15.0909 18.8523C15.1937 18.7478 15.2565 18.6048 15.2565 18.4619C15.2565 18.3184 15.1937 18.1754 15.0909 18.0715C14.8795 17.8681 14.4911 17.8681 14.2797 18.0715C14.1769 18.1754 14.1141 18.3184 14.1141 18.4619C14.1141 18.6048 14.1769 18.7478 14.2797 18.8523C14.3882 18.9562 14.5368 19.0117 14.6853 19.0117C14.8338 19.0117 14.9823 18.9562 15.0909 18.8523Z" fill="white"/>
<path d="M8.40183 22.8594C8.40183 23.1634 8.65774 23.4092 8.97306 23.4092H17.5414C17.8567 23.4092 18.1126 23.1634 18.1126 22.8594C18.1126 22.5553 17.8567 22.3096 17.5414 22.3096H8.97306C8.65774 22.3096 8.40183 22.5553 8.40183 22.8594Z" fill="white"/>
<path d="M6.11692 23.4092C6.26544 23.4092 6.41396 23.3487 6.52249 23.2498C6.62531 23.1453 6.68815 23.0024 6.68815 22.8595C6.68815 22.716 6.62531 22.5731 6.52249 22.4747C6.31114 22.2659 5.9227 22.2659 5.71135 22.4692C5.60853 22.5731 5.54569 22.716 5.54569 22.8595C5.54569 23.0024 5.60853 23.1453 5.71135 23.2498C5.81988 23.3487 5.96269 23.4092 6.11692 23.4092Z" fill="white"/>
<path d="M28.966 19.0117C29.1145 19.0117 29.263 18.9562 29.3715 18.8523C29.4801 18.7478 29.5372 18.6048 29.5372 18.4619C29.5372 18.3184 29.4801 18.1754 29.3715 18.0715C29.1545 17.8681 28.7717 17.8681 28.5604 18.0715C28.4575 18.1754 28.3947 18.3184 28.3947 18.4619C28.3947 18.6048 28.4575 18.7478 28.5604 18.8523C28.6689 18.9562 28.8174 19.0117 28.966 19.0117Z" fill="white"/>
<path d="M20.3976 26.707H6.11692C5.8016 26.707 5.54569 26.9528 5.54569 27.2568C5.54569 27.5609 5.8016 27.8066 6.11692 27.8066H20.3976C20.7129 27.8066 20.9688 27.5609 20.9688 27.2568C20.9688 26.9528 20.7129 26.707 20.3976 26.707Z" fill="white"/>
</svg>
