<svg width="116" height="30" viewBox="0 0 116 30" fill="none" xmlns="http://www.w3.org/2000/svg">
<rect x="0.388672" y="13.8726" width="32.356" height="1.54346" rx="0.771729" fill="#E3B873"/>
<rect x="83.3011" y="13.8726" width="32.356" height="1.54346" rx="0.771729" fill="#E3B873"/>
<path d="M63.5087 9.43277L58.6093 7.97901C58.2415 7.87049 57.8635 7.83228 57.489 7.84581V7.83334H51.5342L40.9743 4.36279L41.0062 19.0378L44.0375 20.5364L45.8323 16.1969L48.4543 17.2343L49.1341 15.554L50.1187 16.5278L49.2001 17.4365C48.8808 17.7523 48.6979 18.189 48.6979 18.6358C48.6979 19.5502 49.4351 20.2936 50.3521 20.3257C50.384 21.2119 51.1044 21.9244 52.0004 21.9559C52.0324 22.8421 52.7527 23.5546 53.6488 23.5861C53.6818 24.493 54.433 25.2222 55.3577 25.2222C55.8092 25.2222 56.2511 25.0412 56.5701 24.7255L57.489 23.817L57.8581 24.1821C58.1774 24.4978 58.619 24.6788 59.0708 24.6788C59.9955 24.6788 60.747 23.9496 60.7795 23.0427C61.6755 23.0112 62.3959 22.2987 62.4278 21.4125C63.3238 21.381 64.0442 20.6685 64.0761 19.7823C64.9931 19.7497 65.7306 19.0068 65.7306 18.0924C65.7306 18.0152 65.718 17.9391 65.7075 17.8624L66.496 17.0826L67.1332 18.3434L70.5844 16.6365L72.67 20.5746L75.0711 18.9922V4.94732L63.5087 9.43277ZM43.4682 19.0399L42.104 18.3652L42.0764 5.87015L48.0972 7.84926L43.4682 19.0399ZM47.8423 15.8214L46.2479 15.191L49.1424 8.1926L50.7175 8.71053L47.8423 15.8214ZM49.7968 18.6358C49.7968 18.4753 49.862 18.3185 49.9768 18.2047L50.9429 17.2495C51.0577 17.1359 51.2165 17.0712 51.3786 17.0712C51.7182 17.0712 51.9945 17.3447 51.9945 17.6804C51.9945 17.8406 51.9291 17.9977 51.8142 18.1113L50.8484 19.0667C50.7336 19.1803 50.5748 19.2448 50.4127 19.2448C50.0731 19.2448 49.7968 18.9715 49.7968 18.6358ZM51.4451 20.266C51.4451 20.1055 51.5103 19.9487 51.6251 19.8349L52.5912 18.8797C52.706 18.7661 52.8648 18.7014 53.0269 18.7014C53.3665 18.7014 53.6429 18.9749 53.6429 19.3106C53.6429 19.4708 53.5774 19.6279 53.4626 19.7415L52.4968 20.6969C52.3819 20.8105 52.2231 20.875 52.0611 20.875C51.7214 20.875 51.4451 20.6017 51.4451 20.266ZM53.0934 21.8962C53.0934 21.7357 53.1586 21.5789 53.2734 21.4651L54.2395 20.5099C54.3544 20.3963 54.5132 20.3316 54.6752 20.3316C55.0149 20.3316 55.2912 20.6051 55.2912 20.9408C55.2912 21.101 55.2257 21.2581 55.1109 21.3717L54.1451 22.3271C54.0303 22.4407 53.8714 22.5052 53.7094 22.5052C53.3698 22.5052 53.0934 22.2319 53.0934 21.8962ZM56.7592 23.0019L55.7934 23.9573C55.6786 24.0709 55.5198 24.1354 55.3577 24.1354C55.0181 24.1354 54.7418 23.8621 54.7418 23.5264C54.7418 23.3659 54.8069 23.2091 54.9218 23.0953L55.8879 22.1401C56.0027 22.0265 56.1615 21.9618 56.3235 21.9618C56.6632 21.9618 56.9395 22.2353 56.9395 22.571C56.9395 22.7312 56.8741 22.8883 56.7592 23.0019ZM64.0157 18.7014C63.8537 18.7014 63.6949 18.6369 63.5801 18.5233L58.9763 13.97L58.1994 14.7384L62.8031 19.2915C62.9179 19.4053 62.9834 19.5621 62.9834 19.7226C62.9834 20.0583 62.7071 20.3316 62.3674 20.3316C62.2054 20.3316 62.0466 20.2671 61.9317 20.1535L57.328 15.6002L56.551 16.3686L61.1548 20.9217C61.2696 21.0355 61.3351 21.1923 61.3351 21.3528C61.3351 21.6885 61.0587 21.9618 60.7191 21.9618C60.557 21.9618 60.3982 21.8973 60.2834 21.7837L55.6797 17.2304L54.9027 17.9988L59.5065 22.5519C59.6213 22.6657 59.6867 22.8225 59.6867 22.983C59.6867 23.3187 59.4104 23.592 59.0708 23.592C58.9087 23.592 58.7499 23.5275 58.6351 23.4139L58.0153 22.8007C58.0263 22.7249 58.0384 22.6487 58.0384 22.571C58.0384 21.6564 57.3009 20.9132 56.3839 20.8811C56.352 19.9949 55.6316 19.2824 54.7356 19.2509C54.7037 18.3647 53.9833 17.6522 53.0873 17.6207C53.0543 16.7138 52.3033 15.9844 51.3786 15.9844C51.3005 15.9844 51.2235 15.9968 51.1462 16.0072L49.5776 14.4558L51.8169 8.92014H55.0637L53.0462 10.9157C52.7219 11.2357 52.544 11.6618 52.544 12.115C52.544 13.05 53.3131 13.8108 54.2588 13.8108C54.7104 13.8108 55.1522 13.6298 55.4712 13.314L56.9269 11.8741C57.2247 11.5806 57.7492 11.5692 58.0593 11.8502L59.3439 13.0148C59.7707 13.4016 60.245 13.7235 60.7526 13.9755L64.4514 17.6613C64.5663 17.7751 64.6317 17.9319 64.6317 18.0924C64.6317 18.4281 64.3554 18.7014 64.0157 18.7014ZM65.1812 16.8462L62.9228 14.5956C63.1245 14.6144 63.3279 14.6259 63.5328 14.6259V13.5391C62.2537 13.5391 61.0295 13.0681 60.0867 12.2132L58.8019 11.0492C58.0768 10.3906 56.8467 10.4169 56.1505 11.1062L54.6951 12.5459C54.5797 12.6589 54.4209 12.7239 54.2588 12.7239C53.9192 12.7239 53.6429 12.4507 53.6429 12.115C53.6429 11.9518 53.7064 11.7993 53.8229 11.6838L55.9174 9.61266C56.5328 9.00399 57.457 8.77235 58.2933 9.02017L63.1471 10.4601L65.9772 16.0589L65.1812 16.8462ZM67.6244 16.8854L64.2932 10.2956L66.7262 9.35157L70.0744 15.6736L67.6244 16.8854ZM73.9723 18.4108L73.0765 19.0014L67.7553 8.95278L73.9723 6.54117V18.4108Z" fill="#E3B873"/>
<circle cx="52.6667" cy="1.57397" r="0.485591" fill="#E3B873"/>
<circle cx="40.4099" cy="24.5032" r="0.485591" fill="#E3B873"/>
<circle cx="42.468" cy="26.1916" r="0.485591" fill="#E3B873"/>
<circle cx="44.8166" cy="27.4304" r="0.485591" fill="#E3B873"/>
<circle cx="47.3655" cy="28.2229" r="0.485591" fill="#E3B873"/>
<circle cx="55.2141" cy="2.34692" r="0.485591" fill="#E3B873"/>
<circle cx="57.5632" cy="3.60131" r="0.485591" fill="#E3B873"/>
<path d="M59.8305 2.89941V5.70111H56.997" stroke="#E3B873" stroke-linecap="round" stroke-linejoin="round"/>
<path d="M38.0104 24.1865L38.0104 21.9197L40.2744 21.9197" stroke="#E3B873" stroke-linecap="round" stroke-linejoin="round"/>
<path d="M40.8008 4.88243C42.3359 3.54661 43.3124 2.93205 45.1519 2.2138C47.1032 1.45186 48.4236 1.27294 50.5441 1.27295" stroke="#E3B873" stroke-linecap="round"/>
<path d="M61.4045 22.3709C60.2633 24.1511 58.1376 25.8893 56.4089 26.8437C54.575 27.8562 52.6102 28.4268 49.9931 28.5631" stroke="#E3B873" stroke-linecap="round"/>
</svg>
