<svg width="42" height="44" viewBox="0 0 42 44" fill="none" xmlns="http://www.w3.org/2000/svg">
<path d="M28.212 2.92347L28.0392 3.89266C31.0658 5.00729 33.8041 6.83285 36.0142 9.2486C39.3945 12.9445 41.2552 17.7251 41.2552 22.7109C41.2552 22.7858 41.1928 22.8555 41.1035 22.8555C41.0145 22.8555 40.9518 22.7856 40.9518 22.7109C40.9518 12.8111 33.6391 4.52217 23.8314 3.12852L23.2611 3.04747V3.62354V4.91463C23.2611 4.98947 23.1986 5.05917 23.1094 5.05917H18.7908C18.7018 5.05917 18.6391 4.9893 18.6391 4.91463V3.62354V3.04747L18.0688 3.12852C8.26113 4.52217 0.948002 12.811 0.948002 22.7109C0.948002 22.7856 0.885348 22.8555 0.796297 22.8555C0.707246 22.8555 0.644591 22.7856 0.644591 22.7109C0.644591 17.7251 2.50537 12.9445 5.88602 9.24857C8.09569 6.83287 10.834 5.00764 13.8606 3.893L13.6878 2.9238H5.66202H5.30141L5.18758 3.26598C4.97965 3.89106 4.38153 4.34716 3.67534 4.34716C2.7931 4.34716 2.08411 3.63818 2.08411 2.77926C2.08411 1.92024 2.79321 1.21104 3.67534 1.21104C4.3815 1.21104 4.97961 1.6671 5.18756 2.29249L5.30136 2.63473H5.66202H18.1391H18.6391V2.13473V0.643561C18.6391 0.568896 18.7018 0.499022 18.7908 0.499022H23.1094C23.1986 0.499022 23.2611 0.568727 23.2611 0.643561V2.13439V2.63439H23.7611H36.2382H36.5988L36.7126 2.29221C36.9205 1.66709 37.5187 1.21104 38.2245 1.21104C39.1067 1.21104 39.8157 1.92001 39.8157 2.77893C39.8157 3.638 39.1069 4.34716 38.2245 4.34716C37.5183 4.34716 36.9202 3.8911 36.7123 3.2657L36.5985 2.92347H36.2378H28.212ZM18.9425 4.27009V4.77009H19.4425H22.4577H22.9577V4.27009V2.89105V2.8887V2.78061V2.77893V2.77725V1.2881V0.7881H22.4577H19.4425H18.9425V1.2881V2.88971V2.89004V4.27009ZM39.5123 2.77893C39.5123 2.06809 38.9297 1.50011 38.2245 1.50011C37.5193 1.50011 36.9367 2.06809 36.9367 2.77893C36.9367 3.48996 37.5191 4.05808 38.2245 4.05808C38.9299 4.05808 39.5123 3.48996 39.5123 2.77893ZM2.38752 2.77926C2.38752 3.4901 2.97009 4.05808 3.67534 4.05808C4.38058 4.05808 4.96315 3.4901 4.96315 2.77926C4.96315 2.06823 4.38072 1.50011 3.67534 1.50011C2.96995 1.50011 2.38752 2.06823 2.38752 2.77926Z" fill="white" stroke="white" stroke-width="0.999998"/>
<mask id="path-2-inside-1" fill="white">
<path d="M22.9586 7.44785C22.8436 7.24374 22.626 7.11719 22.3898 7.11719H19.5104C19.2745 7.11719 19.0566 7.24374 18.9415 7.44785L10.304 22.7525C10.2501 22.8485 10.2216 22.9566 10.2216 23.0667V23.7788C10.2216 23.9006 10.2565 24.0198 10.3224 24.1228L14.0096 29.8965H11.5929C11.2331 29.8965 10.9411 30.1848 10.9411 30.541C10.9411 30.8968 11.2331 31.1855 11.5929 31.1855H11.6611V33.3884C11.6611 33.7445 11.9526 34.0329 12.3128 34.0329H13.1003V36.2361C13.1003 36.5919 13.3922 36.8806 13.752 36.8806H14.5401V39.0811V39.0834V39.0861V43.3545C14.5401 43.7107 14.832 43.999 15.1918 43.999H26.7083C27.0681 43.999 27.36 43.7107 27.36 43.3545V36.8806H28.1478C28.5076 36.8806 28.7995 36.5919 28.7995 36.2361V34.0329H29.5874C29.9472 34.0329 30.2391 33.7445 30.2391 33.3884V31.1855H30.3073C30.6671 31.1855 30.959 30.8968 30.959 30.541C30.959 30.1848 30.6671 29.8965 30.3073 29.8965H29.5891C29.5884 29.8965 29.588 29.8965 29.5874 29.8965C29.5867 29.8965 29.5863 29.8965 29.5857 29.8965H27.8906L31.5778 24.1228C31.6436 24.0198 31.6786 23.9006 31.6786 23.7788V23.0667C31.6786 22.9566 31.6501 22.8485 31.5958 22.7525L22.9586 7.44785ZM20.9502 21.2197C21.3847 21.2197 21.7381 21.5692 21.7381 21.9989C21.7381 22.4286 21.3847 22.778 20.9502 22.778C20.5158 22.778 20.1624 22.4286 20.1624 21.9989C20.1624 21.5692 20.5158 21.2197 20.9502 21.2197ZM27.4961 35.5912H20.3457C19.9859 35.5912 19.694 35.8799 19.694 36.2357C19.694 36.5919 19.9859 36.8803 20.3457 36.8803H26.0566V38.4386H25.2685C24.9087 38.4386 24.6168 38.7269 24.6168 39.0831C24.6168 39.4393 24.9087 39.7276 25.2685 39.7276H26.0563V42.71H15.8435V39.728H16.6313C16.9911 39.728 17.283 39.4396 17.283 39.0834C17.283 38.7273 16.9911 38.4389 16.6313 38.4389H15.8435V36.8803H17.561C17.9212 36.8803 18.2127 36.5919 18.2127 36.2357C18.2127 35.8799 17.9212 35.5912 17.561 35.5912H14.4037V34.0329H27.4961V35.5912ZM28.9357 32.7438H12.9645V31.1855H26.7063H26.7076H26.709H28.9357V32.7438ZM30.3752 23.5921L29.0765 25.6254H27.4279C27.0681 25.6254 26.7762 25.9138 26.7762 26.2699C26.7762 26.6261 27.0681 26.9145 27.4279 26.9145H28.2534L26.3489 29.8965H21.6016V28.4053C21.6016 28.0495 21.31 27.7608 20.9499 27.7608C20.5901 27.7608 20.2982 28.0495 20.2982 28.4053V29.8965H15.5509L13.6467 26.9145H14.4719C14.832 26.9145 15.1236 26.6261 15.1236 26.2699C15.1236 25.9138 14.832 25.6254 14.4719 25.6254H12.8233L11.525 23.5921V23.2343L19.8933 8.40626H20.2982V20.0341C19.4635 20.3056 18.8587 21.0835 18.8587 21.9986C18.8587 23.1393 19.7969 24.0671 20.9499 24.0671C22.1033 24.0671 23.0415 23.1393 23.0415 21.9986C23.0415 21.0835 22.4366 20.3053 21.6019 20.0341V8.40626H22.0069L30.3752 23.2343V23.5921Z"/>
</mask>
<path d="M22.9586 7.44785C22.8436 7.24374 22.626 7.11719 22.3898 7.11719H19.5104C19.2745 7.11719 19.0566 7.24374 18.9415 7.44785L10.304 22.7525C10.2501 22.8485 10.2216 22.9566 10.2216 23.0667V23.7788C10.2216 23.9006 10.2565 24.0198 10.3224 24.1228L14.0096 29.8965H11.5929C11.2331 29.8965 10.9411 30.1848 10.9411 30.541C10.9411 30.8968 11.2331 31.1855 11.5929 31.1855H11.6611V33.3884C11.6611 33.7445 11.9526 34.0329 12.3128 34.0329H13.1003V36.2361C13.1003 36.5919 13.3922 36.8806 13.752 36.8806H14.5401V39.0811V39.0834V39.0861V43.3545C14.5401 43.7107 14.832 43.999 15.1918 43.999H26.7083C27.0681 43.999 27.36 43.7107 27.36 43.3545V36.8806H28.1478C28.5076 36.8806 28.7995 36.5919 28.7995 36.2361V34.0329H29.5874C29.9472 34.0329 30.2391 33.7445 30.2391 33.3884V31.1855H30.3073C30.6671 31.1855 30.959 30.8968 30.959 30.541C30.959 30.1848 30.6671 29.8965 30.3073 29.8965H29.5891C29.5884 29.8965 29.588 29.8965 29.5874 29.8965C29.5867 29.8965 29.5863 29.8965 29.5857 29.8965H27.8906L31.5778 24.1228C31.6436 24.0198 31.6786 23.9006 31.6786 23.7788V23.0667C31.6786 22.9566 31.6501 22.8485 31.5958 22.7525L22.9586 7.44785ZM20.9502 21.2197C21.3847 21.2197 21.7381 21.5692 21.7381 21.9989C21.7381 22.4286 21.3847 22.778 20.9502 22.778C20.5158 22.778 20.1624 22.4286 20.1624 21.9989C20.1624 21.5692 20.5158 21.2197 20.9502 21.2197ZM27.4961 35.5912H20.3457C19.9859 35.5912 19.694 35.8799 19.694 36.2357C19.694 36.5919 19.9859 36.8803 20.3457 36.8803H26.0566V38.4386H25.2685C24.9087 38.4386 24.6168 38.7269 24.6168 39.0831C24.6168 39.4393 24.9087 39.7276 25.2685 39.7276H26.0563V42.71H15.8435V39.728H16.6313C16.9911 39.728 17.283 39.4396 17.283 39.0834C17.283 38.7273 16.9911 38.4389 16.6313 38.4389H15.8435V36.8803H17.561C17.9212 36.8803 18.2127 36.5919 18.2127 36.2357C18.2127 35.8799 17.9212 35.5912 17.561 35.5912H14.4037V34.0329H27.4961V35.5912ZM28.9357 32.7438H12.9645V31.1855H26.7063H26.7076H26.709H28.9357V32.7438ZM30.3752 23.5921L29.0765 25.6254H27.4279C27.0681 25.6254 26.7762 25.9138 26.7762 26.2699C26.7762 26.6261 27.0681 26.9145 27.4279 26.9145H28.2534L26.3489 29.8965H21.6016V28.4053C21.6016 28.0495 21.31 27.7608 20.9499 27.7608C20.5901 27.7608 20.2982 28.0495 20.2982 28.4053V29.8965H15.5509L13.6467 26.9145H14.4719C14.832 26.9145 15.1236 26.6261 15.1236 26.2699C15.1236 25.9138 14.832 25.6254 14.4719 25.6254H12.8233L11.525 23.5921V23.2343L19.8933 8.40626H20.2982V20.0341C19.4635 20.3056 18.8587 21.0835 18.8587 21.9986C18.8587 23.1393 19.7969 24.0671 20.9499 24.0671C22.1033 24.0671 23.0415 23.1393 23.0415 21.9986C23.0415 21.0835 22.4366 20.3053 21.6019 20.0341V8.40626H22.0069L30.3752 23.2343V23.5921Z" fill="white" stroke="white" stroke-width="2" mask="url(#path-2-inside-1)"/>
</svg>
