<svg width="44" height="44" viewBox="0 0 44 44" fill="none" xmlns="http://www.w3.org/2000/svg">
<g clip-path="url(#clip0)">
<g filter="url(#filter0_d)">
<path d="M23.9322 0C14.9416 0 7.6272 7.31443 7.6272 16.305V18.9788L3.08728 26.7924C3.03021 26.8907 3 27.0025 3 27.1163V29.8301C3 30.1862 3.2887 30.4746 3.64453 30.4746H7.6272L7.62753 34.8131C7.62753 36.7386 9.1939 38.305 11.1194 38.305H12.4306C12.7865 38.305 13.0748 38.0163 13.0748 37.6605C13.0748 37.3043 12.7865 37.0159 12.4303 37.0159H11.1194C9.9045 37.0159 8.9166 36.0276 8.9166 34.8131V30.4746H10.7632C11.1191 30.4746 11.4078 30.1862 11.4078 29.8301V25.559C11.4078 25.2032 11.1191 24.9145 10.7632 24.9145H9.3396C8.9834 24.9145 8.695 25.2032 8.695 25.559C8.695 25.9152 8.9834 26.2036 9.3396 26.2036H10.1187V29.1855H4.28906V27.6273H6.49188C6.84772 27.6273 7.13641 27.3386 7.13641 26.9827C7.13641 26.6265 6.84772 26.3382 6.49188 26.3382H4.84229L8.8206 19.4907C8.8813 19.392 8.9163 19.2762 8.9163 19.1527V16.305C8.9163 8.02542 15.6523 1.28907 23.9322 1.28907C32.2124 1.28907 38.9484 8.02542 38.9484 16.305V21.9997C38.9484 28.1929 35.2447 33.6543 29.5027 35.9477H27.8474C27.4912 35.9477 27.2028 36.2361 27.2028 36.5923C27.2028 36.9484 27.4912 37.2368 27.8474 37.2368H28.9827V42.711H17.1025V38.305H18.5933C18.9495 38.305 19.2378 38.0166 19.2378 37.6605C19.2378 37.3046 18.9495 37.0159 18.5933 37.0159H16.4596H16.4579H15.0128C14.657 37.0159 14.3683 37.3043 14.3683 37.6605C14.3683 38.0163 14.657 38.305 15.0128 38.305H15.8134V43.3555C15.8134 43.7117 16.1021 44 16.4579 44H29.6272C29.983 44 30.2717 43.7117 30.2717 43.3555V37.026C33.1184 35.8249 35.5508 33.8523 37.3267 31.2997C39.2307 28.5622 40.2375 25.3466 40.2375 21.9997V16.305C40.2375 7.31443 32.923 0 23.9322 0Z" fill="white"/>
<path d="M15.4475 15.5933C15.4475 17.3329 15.9705 19.0043 16.9605 20.4273C17.8423 21.6949 19.0354 22.6869 20.4302 23.3173V24.6477H20.3631C20.0069 24.6477 19.7185 24.936 19.7185 25.2922C19.7185 25.648 20.0069 25.9367 20.3631 25.9367H20.4302V27.6948C20.4302 28.0506 20.7189 28.3393 21.0747 28.3393H21.1422V29.8304C21.1422 30.1863 21.4309 30.475 21.7867 30.475H26.0578C26.4136 30.475 26.7023 30.1863 26.7023 29.8304V28.3393H26.7698C27.1256 28.3393 27.4143 28.0506 27.4143 27.6948V25.9367H27.4814C27.8376 25.9367 28.126 25.648 28.126 25.2922C28.126 24.936 27.8376 24.6477 27.4814 24.6477H27.4143V23.3173C28.8091 22.6869 30.0022 21.6949 30.884 20.4273C31.8737 19.0043 32.397 17.3329 32.397 15.5933C32.397 10.9202 28.5953 7.11842 23.9221 7.11842C19.2492 7.11842 15.4475 10.9202 15.4475 15.5933ZM22.4313 17.6616H22.9435L24.1782 18.8966C24.2991 19.0174 24.4632 19.0856 24.6341 19.0856C24.805 19.0856 24.9691 19.0174 25.09 18.8966L25.4132 18.5733V22.2451H22.4313V17.6616ZM25.4132 29.1859H22.4313V28.3393H25.4132V29.1859ZM26.1252 27.0502H21.7193V25.9367H26.1252V27.0502ZM21.7193 24.6477V23.5342H26.1252V24.6477H21.7193ZM23.9224 8.40748C27.8846 8.40748 31.1079 11.6312 31.1079 15.5933C31.1079 18.5156 29.3845 21.0967 26.7023 22.2203V17.017C26.7023 17.017 26.7023 17.017 26.7023 17.0167V16.305C26.7023 15.9492 26.4136 15.6605 26.0578 15.6605C25.7016 15.6605 25.4132 15.9492 25.4132 16.305V16.7501L24.6341 17.5293L23.6663 16.5611C23.5454 16.4403 23.3813 16.3725 23.2104 16.3725H22.4313V16.305C22.4313 15.9492 22.1429 15.6605 21.7867 15.6605C21.4309 15.6605 21.1422 15.9492 21.1422 16.305V22.2203C18.46 21.0967 16.7366 18.5156 16.7366 15.5933C16.7366 11.6312 19.9599 8.40748 23.9224 8.40748Z" fill="white"/>
<path d="M24.5666 5.62728V3.49194C24.5666 3.13577 24.2782 2.84741 23.9221 2.84741C23.5662 2.84741 23.2775 3.13577 23.2775 3.49194V5.62728C23.2775 5.98345 23.5662 6.27181 23.9221 6.27181C24.2782 6.27181 24.5666 5.98345 24.5666 5.62728Z" fill="white"/>
<path d="M15.758 6.6066C15.5063 6.35516 15.0981 6.35516 14.8463 6.6066C14.5949 6.85837 14.5949 7.26657 14.8463 7.51834L16.3566 9.02829C16.4825 9.15418 16.6473 9.21729 16.8124 9.21729C16.9773 9.21729 17.1421 9.15418 17.268 9.02829C17.5198 8.77652 17.5198 8.36865 17.268 8.11688L15.758 6.6066Z" fill="white"/>
<path d="M13.8674 15.0378H11.7318C11.3759 15.0378 11.0872 15.3265 11.0872 15.6823C11.0872 16.0385 11.3759 16.3268 11.7318 16.3268H13.8674C14.2233 16.3268 14.512 16.0385 14.512 15.6823C14.512 15.3265 14.2233 15.0378 13.8674 15.0378Z" fill="white"/>
<path d="M16.3569 22.3364L14.8466 23.8467C14.5948 24.0985 14.5948 24.5064 14.8466 24.7581C14.9725 24.884 15.1373 24.9468 15.3021 24.9468C15.4673 24.9468 15.6321 24.884 15.758 24.7581L17.2683 23.2482C17.5201 22.9964 17.5201 22.5882 17.2683 22.3364C17.0165 22.0847 16.6083 22.085 16.3569 22.3364Z" fill="white"/>
<path d="M30.5765 22.3363C30.3248 22.5881 30.3248 22.9959 30.5765 23.2477L32.0865 24.758C32.2124 24.8839 32.3775 24.9467 32.5423 24.9467C32.7072 24.9467 32.8723 24.8839 32.9982 24.758C33.25 24.5062 33.25 24.098 32.9982 23.8463L31.4879 22.3363C31.2362 22.0845 30.8283 22.0845 30.5765 22.3363Z" fill="white"/>
<path d="M36.1128 16.3268C36.469 16.3268 36.7573 16.0381 36.7573 15.6823C36.7573 15.3261 36.469 15.0378 36.1128 15.0378H33.9771C33.6209 15.0378 33.3326 15.3261 33.3326 15.6823C33.3326 16.0381 33.6209 16.3268 33.9771 16.3268H36.1128Z" fill="white"/>
<path d="M32.0865 6.60632L30.5762 8.11661C30.3248 8.36838 30.3248 8.77624 30.5765 9.02801C30.7021 9.1539 30.8672 9.21667 31.0321 9.21667C31.1969 9.21667 31.3621 9.1539 31.4879 9.02801L32.9979 7.51773C33.2497 7.26596 33.2497 6.85809 32.9979 6.60632C32.7465 6.35455 32.3383 6.35455 32.0865 6.60632Z" fill="white"/>
</g>
</g>
<defs>
<filter id="filter0_d" x="-1" y="0" width="45.2375" height="52" filterUnits="userSpaceOnUse" color-interpolation-filters="sRGB">
<feFlood flood-opacity="0" result="BackgroundImageFix"/>
<feColorMatrix in="SourceAlpha" type="matrix" values="0 0 0 0 0 0 0 0 0 0 0 0 0 0 0 0 0 0 127 0"/>
<feOffset dy="4"/>
<feGaussianBlur stdDeviation="2"/>
<feColorMatrix type="matrix" values="0 0 0 0 0 0 0 0 0 0 0 0 0 0 0 0 0 0 0.25 0"/>
<feBlend mode="normal" in2="BackgroundImageFix" result="effect1_dropShadow"/>
<feBlend mode="normal" in="SourceGraphic" in2="effect1_dropShadow" result="shape"/>
</filter>
<clipPath id="clip0">
<rect width="44" height="44" fill="white"/>
</clipPath>
</defs>
</svg>
