<svg width="45" height="44" viewBox="0 0 45 44" fill="none" xmlns="http://www.w3.org/2000/svg">
<g clip-path="url(#clip0)">
<path d="M44.9485 14.1814C44.9485 12.2559 43.3648 10.6895 41.4178 10.6895H37.031V8.48669C37.031 8.13086 36.7395 7.84216 36.3793 7.84216H34.8716V4.21567C34.8716 3.85983 34.58 3.57114 34.2199 3.57114H29.1135V2.79199C29.1135 2.43616 28.8216 2.14746 28.4618 2.14746H16.9454C16.5856 2.14746 16.2937 2.43616 16.2937 2.79199V3.57114H11.1873C10.8272 3.57114 10.5356 3.85983 10.5356 4.21567V7.84216H9.02785C8.66806 7.84216 8.37615 8.13086 8.37615 8.48669V10.6895H3.98972C2.04276 10.6895 0.458984 12.2559 0.458984 14.1814V22.7238C0.458984 23.08 0.750893 23.3683 1.11069 23.3683H1.89816V38.3846C1.89816 40.3101 3.48227 41.8764 5.4289 41.8764H39.9783C41.9253 41.8764 43.509 40.3101 43.509 38.3846V23.3683H44.2968C44.4696 23.3683 44.6356 23.3005 44.7578 23.1797C44.88 23.0588 44.9485 22.895 44.9485 22.7238V14.1814ZM35.7276 9.13123V10.6895H32.7125V9.13123H35.7276ZM17.5971 3.43652H27.8101V4.99481H17.5971V3.43652ZM9.67956 9.13123H12.695V10.6895H9.67956V9.13123ZM42.2056 38.3846C42.2056 39.5994 41.2063 40.5874 39.9783 40.5874H5.4289C4.20084 40.5874 3.20157 39.5994 3.20157 38.3846V23.3683H7.65622V24.9266H6.86841C6.50862 24.9266 6.21671 25.2153 6.21671 25.5711V28.4185C6.21671 28.7743 6.50862 29.063 6.86841 29.063H7.65622V31.2658C7.65622 31.5102 7.79573 31.7331 8.0167 31.8422L10.8957 33.2662C10.9874 33.3119 11.0872 33.3344 11.1873 33.3344C11.2871 33.3344 11.3869 33.3119 11.4785 33.2662L14.3576 31.8422C14.5782 31.7331 14.718 31.5102 14.718 31.2658V29.063H15.5055C15.8656 29.063 16.1572 28.7743 16.1572 28.4185V25.5711C16.1572 25.2153 15.8656 24.9266 15.5055 24.9266H14.718V23.3683H19.1727V26.2831C19.1727 26.639 19.4646 26.9277 19.8244 26.9277H25.5828C25.9426 26.9277 26.2345 26.639 26.2345 26.2831V23.3683H30.6892V24.9266H29.9013C29.5412 24.9266 29.2496 25.2153 29.2496 25.5711V28.4185C29.2496 28.7743 29.5412 29.063 29.9013 29.063H30.6892V31.2658C30.6892 31.5099 30.8283 31.7331 31.0493 31.8422L33.9283 33.2662C34.02 33.3119 34.1201 33.3344 34.2199 33.3344C34.3197 33.3344 34.4195 33.3119 34.5115 33.2662L37.3905 31.8422C37.6111 31.7331 37.7506 31.5102 37.7506 31.2658V29.063H38.5384C38.8986 29.063 39.1901 28.7743 39.1901 28.4185V25.5711C39.1901 25.2153 38.8986 24.9266 38.5384 24.9266H37.7506V23.3683H42.2056V38.3846ZM8.95997 22.7255C8.95997 22.7251 8.95997 22.7245 8.95997 22.7238C8.95997 22.7234 8.95997 22.7228 8.95997 22.7221V20.521H13.4146V24.9266H8.95997V22.7255ZM7.52045 19.2319V17.6733H14.8541V19.2319H7.52045ZM14.8541 26.2157V27.774H7.52045V26.2157H14.8541ZM13.4146 29.063V30.8677L11.1873 31.9695L8.95997 30.8677V29.063H13.4146ZM22.0521 23.3683V24.1475C22.0521 24.5036 22.3436 24.792 22.7038 24.792C23.0636 24.792 23.3555 24.5036 23.3555 24.1475V23.3683H24.9311V25.6386H20.4761V23.3683H22.0521ZM20.4761 22.0793V21.233H24.9311V22.0793H20.4761ZM31.9926 22.7255C31.9926 22.7251 31.9926 22.7245 31.9926 22.7238C31.9926 22.7234 31.9926 22.7228 31.9926 22.7221V20.521H36.4472V24.9266H31.9926V22.7255ZM30.553 19.2319V17.6733H37.8867V19.2319H30.553ZM37.8867 26.2157V27.774H30.553V26.2157H37.8867ZM36.4472 29.063V30.8677L34.2199 31.9695L31.9926 30.8677V29.063H36.4472ZM42.86 22.0793C42.859 22.0793 42.8583 22.0793 42.8573 22.0793C42.8567 22.0793 42.8556 22.0793 42.855 22.0793H37.7506V20.521H38.5384C38.8986 20.521 39.1901 20.2323 39.1901 19.8764V17.6736H39.2584C39.6185 17.6736 39.9101 17.3849 39.9101 17.0291C39.9101 16.6729 39.6185 16.3846 39.2584 16.3846H29.1818C28.8216 16.3846 28.5301 16.6729 28.5301 17.0291C28.5301 17.3849 28.8216 17.6736 29.1818 17.6736H29.2496V19.8764C29.2496 20.2323 29.5416 20.521 29.9013 20.521H30.6892V22.0793H26.2345V20.5884C26.2345 20.2323 25.9426 19.9439 25.5828 19.9439H19.8244C19.4646 19.9439 19.1727 20.2323 19.1727 20.5884V22.0793H14.718V20.521H15.5058C15.8656 20.521 16.1575 20.2323 16.1575 19.8764V17.6736H16.2258C16.5856 17.6736 16.8775 17.3849 16.8775 17.0291C16.8775 16.6729 16.5856 16.3846 16.2258 16.3846H6.14882C5.78903 16.3846 5.49712 16.6729 5.49712 17.0291C5.49712 17.3849 5.78903 17.6736 6.14882 17.6736H6.21705V19.8764C6.21705 20.2323 6.50862 20.521 6.86875 20.521H7.65656V22.0793H1.76239V14.1814C1.76239 12.9669 2.76167 11.9786 3.98972 11.9786H16.2258C16.5856 11.9786 16.8775 11.6899 16.8775 11.334C16.8775 10.9782 16.5856 10.6895 16.2258 10.6895H13.9984V8.48669C13.9984 8.13086 13.7065 7.84216 13.3467 7.84216H11.839V4.8602H16.2937V5.63934C16.2937 5.99551 16.5856 6.28387 16.9454 6.28387H28.4618C28.8216 6.28387 29.1135 5.99551 29.1135 5.63934V4.8602H33.5685V7.84216H32.0608C31.7007 7.84216 31.4091 8.13086 31.4091 8.48669V10.6895H18.8367C18.4769 10.6895 18.185 10.9782 18.185 11.334C18.185 11.6899 18.4769 11.9786 18.8367 11.9786H41.4178C42.6459 11.9786 43.6451 12.9669 43.6451 14.1814V22.0793H42.86Z" fill="white"/>
<path d="M4.77753 38.3843C4.77753 38.7404 5.0691 39.0288 5.42923 39.0288H39.9783C40.3381 39.0288 40.63 38.7404 40.63 38.3843C40.63 38.0284 40.3381 37.7397 39.9783 37.7397H5.42923C5.0691 37.7397 4.77753 38.0284 4.77753 38.3843Z" fill="white"/>
</g>
<defs>
<clipPath id="clip0">
<rect width="44.4896" height="44" fill="white" transform="translate(0.458984 -0.000976562)"/>
</clipPath>
</defs>
</svg>
